<svg width="17" height="16" viewBox="0 0 17 16" fill="none" xmlns="http://www.w3.org/2000/svg">
<g id="Icon" clip-path="url(#clip0_3_3133)">
<path id="Vector" d="M13.8888 14.0312L1.88879 2.03125L2.95129 0.96875L14.9513 12.9688L13.8888 14.0312ZM3.17004 5.3125C3.07629 5.21875 2.96171 5.17188 2.82629 5.17188C2.69088 5.17188 2.57629 5.21875 2.48254 5.3125C2.17004 5.63542 1.87056 5.98958 1.58411 6.375C1.29765 6.76042 1.02942 7.17708 0.779419 7.625C0.706502 7.73958 0.670044 7.86458 0.670044 8C0.670044 8.13542 0.706502 8.26042 0.779419 8.375C1.23775 9.16667 1.73775 9.86458 2.27942 10.4688C2.8315 11.0729 3.41223 11.5807 4.02161 11.9922C4.63098 12.4036 5.26379 12.7188 5.92004 12.9375C6.57629 13.1458 7.24296 13.25 7.92004 13.25C8.25338 13.25 8.5815 13.224 8.90442 13.1719C9.22734 13.1198 9.54504 13.0469 9.85754 12.9531C10.0346 12.901 10.1388 12.7891 10.17 12.6172C10.2013 12.4453 10.1544 12.2969 10.0294 12.1719L9.59192 11.7344C9.52942 11.6719 9.4539 11.6302 9.36536 11.6094C9.27681 11.5885 9.18567 11.5885 9.09192 11.6094C8.894 11.651 8.69869 11.6849 8.50598 11.7109C8.31327 11.737 8.11796 11.75 7.92004 11.75C7.45129 11.75 6.97734 11.6823 6.49817 11.5469C6.02942 11.401 5.56067 11.1875 5.09192 10.9062C4.62317 10.625 4.17004 10.2656 3.73254 9.82812C3.28463 9.38021 2.86275 8.85938 2.46692 8.26562C2.41484 8.18229 2.38879 8.09375 2.38879 8C2.38879 7.90625 2.41484 7.81771 2.46692 7.73438C2.63359 7.48438 2.80546 7.2474 2.98254 7.02344C3.15963 6.79948 3.34192 6.58854 3.52942 6.39062C3.62317 6.28646 3.67004 6.16406 3.67004 6.02344C3.67004 5.88281 3.62317 5.76562 3.52942 5.67188L3.17004 5.3125ZM5.62317 7.76562C5.48775 7.63021 5.33671 7.58854 5.17004 7.64062C5.00338 7.69271 4.92004 7.8125 4.92004 8C4.92004 8.83333 5.21171 9.54167 5.79504 10.125C6.37838 10.7083 7.08671 11 7.92004 11C8.10754 11 8.22734 10.9167 8.27942 10.75C8.3315 10.5833 8.28984 10.4323 8.15442 10.2969L5.62317 7.76562ZM10.3888 9.70312C10.3159 9.81771 10.2091 9.875 10.0685 9.875C9.92786 9.875 9.81067 9.82812 9.71692 9.73438L6.18567 6.20312C6.09192 6.10938 6.04504 5.99219 6.04504 5.85156C6.04504 5.71094 6.10234 5.60417 6.21692 5.53125C6.4565 5.36458 6.72213 5.23438 7.01379 5.14062C7.30546 5.04688 7.60754 5 7.92004 5C8.75338 5 9.46171 5.29167 10.045 5.875C10.6284 6.45833 10.92 7.16667 10.92 8C10.92 8.3125 10.8732 8.61458 10.7794 8.90625C10.6857 9.19792 10.5555 9.46354 10.3888 9.70312ZM11.2794 11.2969C11.1648 11.1823 11.1154 11.0443 11.131 10.8828C11.1466 10.7214 11.2169 10.5938 11.3419 10.5C11.6961 10.2188 12.045 9.89323 12.3888 9.52344C12.7325 9.15365 13.0607 8.73438 13.3732 8.26562C13.4253 8.18229 13.4513 8.09375 13.4513 8C13.4513 7.90625 13.4253 7.81771 13.3732 7.73438C12.9773 7.14062 12.5555 6.61979 12.1075 6.17188C11.67 5.73438 11.2169 5.375 10.7482 5.09375C10.2794 4.8125 9.81067 4.59896 9.34192 4.45312C8.86275 4.31771 8.38879 4.25 7.92004 4.25C7.50338 4.25 7.08671 4.30469 6.67004 4.41406C6.25338 4.52344 5.83671 4.6875 5.42004 4.90625C5.31588 4.95833 5.2065 4.97656 5.09192 4.96094C4.97734 4.94531 4.87838 4.90104 4.79504 4.82812L4.42004 4.4375C4.31588 4.33333 4.27161 4.20312 4.28723 4.04688C4.30286 3.89062 4.37838 3.77083 4.51379 3.6875C5.04504 3.38542 5.59713 3.15365 6.17004 2.99219C6.74296 2.83073 7.32629 2.75 7.92004 2.75C8.59713 2.75 9.26379 2.85417 9.92004 3.0625C10.5763 3.28125 11.2091 3.59635 11.8185 4.00781C12.4279 4.41927 13.0086 4.92708 13.5607 5.53125C14.1023 6.13542 14.6023 6.83333 15.0607 7.625C15.1336 7.73958 15.17 7.86458 15.17 8C15.17 8.13542 15.1336 8.26042 15.0607 8.375C14.6648 9.07292 14.2299 9.69792 13.756 10.25C13.282 10.8021 12.7794 11.2812 12.2482 11.6875C12.1544 11.7604 12.0476 11.7917 11.9279 11.7812C11.8081 11.7708 11.7065 11.724 11.6232 11.6406L11.2794 11.2969Z" fill="#6C7C8C"/>
</g>
<defs>
<clipPath id="clip0_3_3133">
<rect width="16" height="16" fill="white" transform="matrix(1 0 0 -1 0.670044 16)"/>
</clipPath>
</defs>
</svg>
